<svg width="1280" height="900" viewBox="0 0 1280 900" fill="none" xmlns="http://www.w3.org/2000/svg">
  <rect width="1280" height="900" fill="#11131A"/>
  <text x="44" y="72" fill="#F6F3EE" font-family="IBM Plex Mono, monospace" font-size="24" letter-spacing="5">IRIS SPECIES PREDICTION</text>
  <text x="44" y="106" fill="#8F8B84" font-family="IBM Plex Mono, monospace" font-size="14" letter-spacing="2.5">MATPLOTLIB / SEABORN / SVM CLASSIFIER</text>
  <rect x="44" y="144" width="560" height="302" rx="12" fill="#F7F6F2"/>
  <text x="72" y="182" fill="#7C3AED" font-family="IBM Plex Mono, monospace" font-size="15" letter-spacing="2.5">SEPAL vs PETAL SCATTER</text>
  <line x1="118" y1="402" x2="118" y2="214" stroke="#BDB7AA" stroke-width="2"/>
  <line x1="118" y1="402" x2="528" y2="402" stroke="#BDB7AA" stroke-width="2"/>
  <circle cx="176" cy="350" r="8" fill="#7C3AED"/>
  <circle cx="210" cy="324" r="8" fill="#8B5CF6"/>
  <circle cx="244" cy="298" r="8" fill="#A78BFA"/>
  <circle cx="292" cy="278" r="8" fill="#10B981"/>
  <circle cx="334" cy="250" r="8" fill="#34D399"/>
  <circle cx="380" cy="220" r="8" fill="#6EE7B7"/>
  <circle cx="430" cy="198" r="8" fill="#F59E0B"/>
  <circle cx="468" cy="176" r="8" fill="#FBBF24"/>
  <circle cx="504" cy="160" r="8" fill="#FCD34D"/>
  <rect x="44" y="478" width="560" height="228" rx="12" fill="#171923"/>
  <text x="72" y="514" fill="#8F8B84" font-family="IBM Plex Mono, monospace" font-size="15" letter-spacing="2.5">FEATURE GRID</text>
  <rect x="88" y="548" width="100" height="54" rx="8" fill="#262938"/>
  <rect x="202" y="548" width="100" height="54" rx="8" fill="#262938"/>
  <rect x="316" y="548" width="100" height="54" rx="8" fill="#262938"/>
  <rect x="430" y="548" width="100" height="54" rx="8" fill="#262938"/>
  <rect x="88" y="624" width="100" height="50" rx="8" fill="#33254A"/>
  <rect x="202" y="624" width="100" height="50" rx="8" fill="#203C34"/>
  <rect x="316" y="624" width="100" height="50" rx="8" fill="#473C1C"/>
  <rect x="430" y="624" width="100" height="50" rx="8" fill="#2C2E38"/>
  <rect x="636" y="144" width="600" height="562" rx="14" fill="#0C0E14"/>
  <text x="672" y="184" fill="#8F8B84" font-family="IBM Plex Mono, monospace" font-size="15" letter-spacing="2.5">MODEL OUTPUT</text>
  <text x="668" y="260" fill="#7C3AED" font-family="IBM Plex Mono, monospace" font-size="72" font-weight="700">98.0%</text>
  <text x="672" y="296" fill="#8F8B84" font-family="IBM Plex Mono, monospace" font-size="14" letter-spacing="2.5">TRAINING ACCURACY</text>
  <rect x="668" y="344" width="536" height="100" rx="12" fill="#141824"/>
  <text x="700" y="384" fill="#8F8B84" font-family="IBM Plex Mono, monospace" font-size="14" letter-spacing="2.5">PREDICTED SPECIES</text>
  <text x="700" y="420" fill="#F6F3EE" font-family="Arial, sans-serif" font-size="38" font-weight="700">Iris-setosa</text>
  <rect x="668" y="478" width="536" height="182" rx="12" fill="#141824"/>
  <text x="700" y="518" fill="#8F8B84" font-family="IBM Plex Mono, monospace" font-size="14" letter-spacing="2.5">FEATURE IMPORTANCE</text>
  <rect x="700" y="548" width="246" height="14" rx="7" fill="#7C3AED"/>
  <rect x="700" y="584" width="216" height="14" rx="7" fill="#A78BFA"/>
  <rect x="700" y="620" width="292" height="14" rx="7" fill="#C4B5FD"/>
  <text x="962" y="561" fill="#F6F3EE" font-family="IBM Plex Mono, monospace" font-size="13">PETAL LENGTH</text>
  <text x="930" y="597" fill="#F6F3EE" font-family="IBM Plex Mono, monospace" font-size="13">PETAL WIDTH</text>
  <text x="1000" y="633" fill="#F6F3EE" font-family="IBM Plex Mono, monospace" font-size="13">SEPAL LENGTH</text>
</svg>
