<svg width="1280" height="900" viewBox="0 0 1280 900" fill="none" xmlns="http://www.w3.org/2000/svg">
  <rect width="1280" height="900" fill="#11131A"/>
  <text x="44" y="72" fill="#F6F3EE" font-family="IBM Plex Mono, monospace" font-size="24" letter-spacing="5">NETWORK SECURITY AI</text>
  <text x="44" y="106" fill="#8F8B84" font-family="IBM Plex Mono, monospace" font-size="14" letter-spacing="2.5">CICIDS2017 / INTRUSION DETECTION / MODEL COMPARISON</text>
  <rect x="44" y="144" width="760" height="562" rx="14" fill="#0C0E14"/>
  <text x="78" y="186" fill="#8F8B84" font-family="IBM Plex Mono, monospace" font-size="15" letter-spacing="2.5">FEATURE CORRELATION</text>
  <g transform="translate(140 228)">
    <rect x="0" y="0" width="80" height="80" fill="#F5F3FF"/>
    <rect x="88" y="0" width="80" height="80" fill="#E9D5FF"/>
    <rect x="176" y="0" width="80" height="80" fill="#DDD6FE"/>
    <rect x="264" y="0" width="80" height="80" fill="#C4B5FD"/>
    <rect x="352" y="0" width="80" height="80" fill="#A78BFA"/>
    <rect x="440" y="0" width="80" height="80" fill="#7C3AED"/>
    <rect x="0" y="88" width="80" height="80" fill="#EDE9FE"/>
    <rect x="88" y="88" width="80" height="80" fill="#F5F3FF"/>
    <rect x="176" y="88" width="80" height="80" fill="#E9D5FF"/>
    <rect x="264" y="88" width="80" height="80" fill="#DDD6FE"/>
    <rect x="352" y="88" width="80" height="80" fill="#C4B5FD"/>
    <rect x="440" y="88" width="80" height="80" fill="#A78BFA"/>
    <rect x="0" y="176" width="80" height="80" fill="#DDD6FE"/>
    <rect x="88" y="176" width="80" height="80" fill="#EDE9FE"/>
    <rect x="176" y="176" width="80" height="80" fill="#F5F3FF"/>
    <rect x="264" y="176" width="80" height="80" fill="#E9D5FF"/>
    <rect x="352" y="176" width="80" height="80" fill="#DDD6FE"/>
    <rect x="440" y="176" width="80" height="80" fill="#C4B5FD"/>
    <rect x="0" y="264" width="80" height="80" fill="#C4B5FD"/>
    <rect x="88" y="264" width="80" height="80" fill="#DDD6FE"/>
    <rect x="176" y="264" width="80" height="80" fill="#EDE9FE"/>
    <rect x="264" y="264" width="80" height="80" fill="#F5F3FF"/>
    <rect x="352" y="264" width="80" height="80" fill="#E9D5FF"/>
    <rect x="440" y="264" width="80" height="80" fill="#DDD6FE"/>
    <rect x="0" y="352" width="80" height="80" fill="#A78BFA"/>
    <rect x="88" y="352" width="80" height="80" fill="#C4B5FD"/>
    <rect x="176" y="352" width="80" height="80" fill="#DDD6FE"/>
    <rect x="264" y="352" width="80" height="80" fill="#EDE9FE"/>
    <rect x="352" y="352" width="80" height="80" fill="#F5F3FF"/>
    <rect x="440" y="352" width="80" height="80" fill="#E9D5FF"/>
    <rect x="0" y="440" width="80" height="80" fill="#7C3AED"/>
    <rect x="88" y="440" width="80" height="80" fill="#A78BFA"/>
    <rect x="176" y="440" width="80" height="80" fill="#C4B5FD"/>
    <rect x="264" y="440" width="80" height="80" fill="#DDD6FE"/>
    <rect x="352" y="440" width="80" height="80" fill="#EDE9FE"/>
    <rect x="440" y="440" width="80" height="80" fill="#F5F3FF"/>
  </g>
  <text x="140" y="214" fill="#8F8B84" font-family="IBM Plex Mono, monospace" font-size="13">traffic</text>
  <text x="226" y="214" fill="#8F8B84" font-family="IBM Plex Mono, monospace" font-size="13">latency</text>
  <text x="316" y="214" fill="#8F8B84" font-family="IBM Plex Mono, monospace" font-size="13">alerts</text>
  <text x="404" y="214" fill="#8F8B84" font-family="IBM Plex Mono, monospace" font-size="13">threat</text>
  <text x="492" y="214" fill="#8F8B84" font-family="IBM Plex Mono, monospace" font-size="13">ports</text>
  <text x="582" y="214" fill="#8F8B84" font-family="IBM Plex Mono, monospace" font-size="13">risk</text>
  <rect x="836" y="144" width="400" height="562" rx="14" fill="#F7F6F2"/>
  <text x="870" y="186" fill="#7C3AED" font-family="IBM Plex Mono, monospace" font-size="15" letter-spacing="2.5">PROJECT CONTEXT</text>
  <text x="870" y="254" fill="#111216" font-family="IBM Plex Mono, monospace" font-size="46" font-weight="700">CICIDS2017</text>
  <text x="870" y="290" fill="#6F6B63" font-family="IBM Plex Mono, monospace" font-size="11" letter-spacing="1.2">68 FEATURES / 6 CLASSES / STRATIFIED SPLIT</text>
  <rect x="870" y="340" width="320" height="16" rx="8" fill="#7C3AED"/>
  <rect x="870" y="392" width="286" height="16" rx="8" fill="#A78BFA"/>
  <rect x="870" y="444" width="246" height="16" rx="8" fill="#C4B5FD"/>
  <text x="1126" y="354" fill="#111216" font-family="IBM Plex Mono, monospace" font-size="13">DNN</text>
  <text x="1088" y="406" fill="#111216" font-family="IBM Plex Mono, monospace" font-size="13">RANDOM FOREST</text>
  <text x="1152" y="458" fill="#111216" font-family="IBM Plex Mono, monospace" font-size="13">SVM</text>
  <text x="870" y="530" fill="#6F6B63" font-family="IBM Plex Mono, monospace" font-size="15" letter-spacing="2.5">MALICIOUS TRAFFIC DETECTION</text>
  <text x="870" y="580" fill="#111216" font-family="Arial, sans-serif" font-size="24" font-weight="700">DDoS, PortScan,</text>
  <text x="870" y="616" fill="#111216" font-family="Arial, sans-serif" font-size="24" font-weight="700">Brute Force, Botnet,</text>
  <text x="870" y="652" fill="#111216" font-family="Arial, sans-serif" font-size="24" font-weight="700">Web Attack</text>
</svg>
